#!OML:ASF F:\VICON\USERDATA\INSTALL\rory3\rory3.ASF
:FULLY-SPECIFIED
:DEGREES
1636
root 1.75984 9.84769 -4.83662 170.748 124.885 183.094
lowerback 26.5477 -1.38333 -3.95623
upperback 12.2827 -1.99078 0.318577
thorax -0.854544 -0.885007 3.11796
lowerneck -21.426 -8.36264 -15.0167
upperneck 9.334 -8.73724 11.5061
head 7.51942 -3.74842 5.0938
rclavicle 3.27995e-015 -9.24349e-015
rhumerus -25.1424 20.6631 -87.0225
rradius 99.7111
rwrist 42.4173
rhand -40.8477 13.3466
rfingers 7.12502
rthumb -13.7849 -16.1767
lclavicle 3.27995e-015 -9.24349e-015
lhumerus -22.4945 -13.6376 88.3048
lradius 93.6304
lwrist -28.8862
lhand -39.4493 24.3638
lfingers 7.12502
lthumb -12.4369 53.9738
rfemur -82.614 -20.1299 19.8386
rtibia 110.554
rfoot -10.6349 6.00676
rtoes -5.07478
lfemur -81.5233 12.6584 -20.3697
ltibia 107.884
lfoot -10.725 -13.1117
ltoes -4.35969
1637
root 1.76223 9.84904 -4.83593 170.713 124.881 182.994
lowerback 26.5446 -1.38896 -3.89498
upperback 12.2689 -1.98542 0.308412
thorax -0.87282 -0.879166 3.07078
lowerneck -21.4783 -8.38035 -15.0013
upperneck 9.43206 -8.76967 11.5303
head 7.56545 -3.75993 5.09434
rclavicle 8.21478e-014 -5.01931e-014
rhumerus -25.1561 20.6909 -87.0358
rradius 99.7202
rwrist 42.3964
rhand -40.8464 13.2496
rfingers 7.12502
rthumb -13.7836 -16.2738
lclavicle 8.21478e-014 -5.01931e-014
lhumerus -22.5785 -13.7783 88.2489
lradius 93.7727
lwrist -28.8538
lhand -39.4687 24.8805
lfingers 7.12502
lthumb -12.4556 54.4894
rfemur -82.6372 -20.121 19.9074
rtibia 110.557
rfoot -10.6689 5.98047
rtoes -5.28618
lfemur -81.5902 12.6604 -20.3229
ltibia 107.898
lfoot -10.7396 -13.1144
ltoes -4.22934
1638
root 1.76366 9.85007 -4.83434 170.754 124.879 182.99
lowerback 26.5223 -1.37742 -3.94723
upperback 12.257 -1.9829 0.321835
thorax -0.872652 -0.88099 3.11409
lowerneck -21.4753 -8.35714 -14.9913
upperneck 9.42322 -8.73977 11.5248
head 7.55724 -3.74587 5.09551
rclavicle -8.67944e-014 2.0773e-014
rhumerus -25.1777 20.6832 -87.0286
rradius 99.7137
rwrist 42.5063
rhand -40.727 13.1873
rfingers 7.12502
rthumb -13.6685 -16.3438
lclavicle -8.67944e-014 2.0773e-014
lhumerus -22.6866 -13.9136 88.3148
lradius 94.0395
lwrist -28.9271
lhand -39.1493 26.57
lfingers 7.12502
lthumb -12.1476 56.1973
rfemur -82.6678 -20.1153 19.9328
rtibia 110.564
rfoot -10.7138 5.96705
rtoes -5.28568
lfemur -81.6337 12.6606 -20.3261
ltibia 107.895
lfoot -10.796 -13.1291
ltoes -3.98201
1639
root 1.76665 9.84881 -4.83283 170.885 124.848 183.075
lowerback 26.4518 -1.37796 -4.03537
upperback 12.2705 -2.00107 0.316639
thorax -0.818477 -0.89516 3.16098
lowerneck -21.5042 -8.32341 -14.8881
upperneck 9.35294 -8.69986 11.4419
head 7.52389 -3.72883 5.05589
rclavicle -6.83322e-014 5.42682e-014
rhumerus -25.1549 20.6994 -87.0301
rradius 99.7171
rwrist 42.6173
rhand -40.63 13.0445
rfingers 7.12502
rthumb -13.5751 -16.493
lclavicle -6.83322e-014 5.42682e-014
lhumerus -22.6997 -14.0301 88.3784
lradius 94.2619
lwrist -28.8153
lhand -38.9505 28.1625
lfingers 7.12502
lthumb -11.956 57.8011
rfemur -82.7404 -20.1428 19.8816
rtibia 110.585
rfoot -10.7367 5.96469
rtoes -5.13299
lfemur -81.6901 12.6224 -20.3976
ltibia 107.903
lfoot -10.7941 -13.1088
ltoes -3.87735
1640
root 1.76909 9.84758 -4.83191 171.013 124.791 183.174
lowerback 26.3914 -1.40006 -4.11579
upperback 12.3051 -2.04354 0.292993
thorax -0.744455 -0.92056 3.1894
lowerneck -21.6298 -8.31347 -14.8103
upperneck 9.38586 -8.6815 11.3791
head 7.54538 -3.71858 5.02282
rclavicle 6.07908e-014 -3.87133e-014
rhumerus -25.1321 20.7578 -87.0749
rradius 99.7248
rwrist 42.6533
rhand -40.5759 12.7781
rfingers 7.12502
rthumb -13.5229 -16.7628
lclavicle 6.07908e-014 -3.87133e-014
lhumerus -22.6737 -14.1096 88.4241
lradius 94.3445
lwrist -28.4964
lhand -39.2665 28.8779
lfingers 7.12502
lthumb -12.2606 58.4985
rfemur -82.8164 -20.2196 19.8289
rtibia 110.614
rfoot -10.7437 5.97965
rtoes -5.16307
lfemur -81.7396 12.5714 -20.478
ltibia 107.914
lfoot -10.7752 -13.1411
ltoes -4.09453
1641
root 1.76951 9.84947 -4.8311 170.939 124.765 183.089
lowerback 26.4097 -1.39971 -4.05903
upperback 12.3306 -2.02852 0.269748
thorax -0.729825 -0.909497 3.12802
lowerneck -21.8029 -8.38186 -14.6947
upperneck 9.52967 -8.78647 11.3377
head 7.62737 -3.76257 4.97166
rclavicle 9.39382e-014 -2.49226e-014
rhumerus -25.1091 20.669 -87.1406
rradius 99.6664
rwrist 42.6647
rhand -40.6974 12.7232
rfingers 7.12502
rthumb -13.64 -16.8099
lclavicle 9.39382e-014 -2.49226e-014
lhumerus -22.6909 -14.3471 88.4748
lradius 94.3292
lwrist -28.1351
lhand -39.9022 29.3823
lfingers 7.12502
lthumb -12.8735 58.9653
rfemur -82.7562 -20.2127 19.8582
rtibia 110.583
rfoot -10.7592 5.97674
rtoes -5.17892
lfemur -81.7291 12.5308 -20.3995
ltibia 107.919
lfoot -10.7719 -13.1957
ltoes -4.01804
1642
root 1.77037 9.85038 -4.83028 170.886 124.72 183.007
lowerback 26.4386 -1.41391 -3.95455
upperback 12.3422 -2.02323 0.22544
thorax -0.738494 -0.899843 3.0196
lowerneck -21.8079 -8.41184 -14.5067
upperneck 9.49957 -8.86357 11.2414
head 7.61453 -3.8002 4.89633
rclavicle 5.70388e-014 -2.23881e-014
rhumerus -25.0795 20.5363 -87.1882
rradius 99.595
rwrist 42.728
rhand -40.828 12.8732
rfingers 7.12502
rthumb -13.7659 -16.6513
lclavicle 5.70388e-014 -2.23881e-014
lhumerus -22.6868 -14.5097 88.4346
lradius 94.3058
lwrist -27.9471
lhand -40.1779 29.095
lfingers 7.12502
lthumb -13.1393 58.661
rfemur -82.7252 -20.2385 19.8774
rtibia 110.558
rfoot -10.7896 6.01653
rtoes -5.1346
lfemur -81.7369 12.4603 -20.3487
ltibia 107.911
lfoot -10.758 -13.1908
ltoes -3.51344
